<svg xmlns="http://www.w3.org/2000/svg" width="500" height="500" viewBox="0 0 500 500" version="1.1"><path d="M 358.791 82.146 C 351.423 83.142, 346.394 85.764, 340.451 91.707 C 323.336 108.822, 328.208 137.486, 350 147.877 C 354.740 150.138, 356.813 150.500, 365 150.500 C 373.145 150.500, 375.284 150.130, 380 147.906 C 400.176 138.389, 406.227 112.682, 392.518 94.727 C 384.782 84.596, 373.048 80.219, 358.791 82.146 M 254.340 135.958 C 252.602 136.372, 249.680 137.587, 247.847 138.657 C 243.060 141.453, 151.390 247.289, 149.934 251.701 C 148.088 257.293, 149.176 266.156, 152.285 270.854 C 158.080 279.611, 170.372 283.064, 179.500 278.500 C 182.500 277, 195.291 262.930, 230.661 222.224 C 256.600 192.373, 278.312 166.543, 278.911 164.825 C 281.895 156.266, 278.978 145.509, 272.290 140.408 C 266.081 135.672, 260.915 134.391, 254.340 135.958 M 317.287 143.650 C 313.515 144.986, 302.547 157.260, 212.824 260.548 C 157.687 324.021, 111.790 377.427, 110.830 379.227 C 107.367 385.719, 109.044 397.153, 114.298 402.869 C 117.457 406.306, 125.833 409.981, 130.500 409.977 C 140.407 409.970, 136.013 414.597, 242.556 292 C 296.807 229.575, 342.343 176.801, 343.746 174.725 C 348.364 167.896, 347.796 157.578, 342.404 150.353 C 339.283 146.172, 330.743 141.978, 325.554 142.079 C 323.324 142.122, 319.604 142.829, 317.287 143.650" stroke="none" fill="#fbfafa" fill-rule="evenodd"/><path d="M 0 250.002 L 0 500.004 250.250 499.752 L 500.500 499.500 500.752 249.750 L 501.004 0 250.502 0 L 0 0 0 250.002 M 0.492 250.500 C 0.492 388, 0.608 444.101, 0.750 375.170 C 0.892 306.238, 0.892 193.738, 0.750 125.170 C 0.608 56.601, 0.492 113, 0.492 250.500 M 358.791 82.146 C 351.423 83.142, 346.394 85.764, 340.451 91.707 C 323.336 108.822, 328.208 137.486, 350 147.877 C 354.740 150.138, 356.813 150.500, 365 150.500 C 373.145 150.500, 375.284 150.130, 380 147.906 C 400.176 138.389, 406.227 112.682, 392.518 94.727 C 384.782 84.596, 373.048 80.219, 358.791 82.146 M 254.340 135.958 C 252.602 136.372, 249.680 137.587, 247.847 138.657 C 243.060 141.453, 151.390 247.289, 149.934 251.701 C 148.088 257.293, 149.176 266.156, 152.285 270.854 C 158.080 279.611, 170.372 283.064, 179.500 278.500 C 182.500 277, 195.291 262.930, 230.661 222.224 C 256.600 192.373, 278.312 166.543, 278.911 164.825 C 281.895 156.266, 278.978 145.509, 272.290 140.408 C 266.081 135.672, 260.915 134.391, 254.340 135.958 M 317.287 143.650 C 313.515 144.986, 302.547 157.260, 212.824 260.548 C 157.687 324.021, 111.790 377.427, 110.830 379.227 C 107.367 385.719, 109.044 397.153, 114.298 402.869 C 117.457 406.306, 125.833 409.981, 130.500 409.977 C 140.407 409.970, 136.013 414.597, 242.556 292 C 296.807 229.575, 342.343 176.801, 343.746 174.725 C 348.364 167.896, 347.796 157.578, 342.404 150.353 C 339.283 146.172, 330.743 141.978, 325.554 142.079 C 323.324 142.122, 319.604 142.829, 317.287 143.650" stroke="none" fill="#bc0404" fill-rule="evenodd"/></svg>